<?xml version="1.0" encoding="UTF-8"?>
<svg xmlns="http://www.w3.org/2000/svg" viewBox="0 0 1040 762" width="1040" height="762" font-family="'Noto Sans Devanagari','Nirmala UI',sans-serif" role="img" aria-label="poster-php सिस्टम आर्किटेक्चर">
  <title>poster-php सिस्टम आर्किटेक्चर</title>
  <defs><marker id="arrow" viewBox="0 0 10 10" refX="9" refY="5" markerWidth="6" markerHeight="6" orient="auto"><path d="M0 0L10 5L0 10Z" fill="#B2BEC3"/></marker></defs>
  <rect width="1040" height="762" fill="#FFFFFF"/>
  <text x="520" y="42" font-size="23" fill="#2D3436" font-weight="700" text-anchor="middle">poster-php सिस्टम आर्किटेक्चर</text>
  <text x="520" y="66" font-size="13" fill="#7F8C8D" text-anchor="middle">फ़्रेमवर्क-स्वतंत्र कोर + 6 फ़्रेमवर्क अडैप्टर · हर परत नीचे के इंटरफ़ेस पर निर्भर</text>
  <rect x="40" y="88" width="960" height="154" rx="16" fill="#FFF6F6" stroke="#FF6B6B" stroke-width="1.5"/>
  <rect x="60" y="73" width="87.2" height="30" rx="15" fill="#FF6B6B"/>
  <text x="103.6" y="93" font-size="13" fill="#FFFFFF" font-weight="700" text-anchor="middle">API लेयर</text>
  <rect x="64" y="118" width="214.5" height="50" rx="10" fill="#FFFFFF" stroke="#E1E8ED" stroke-width="1"/>
  <rect x="64" y="128" width="4" height="30" rx="2" fill="#FF6B6B"/>
  <text x="171.25" y="142" font-size="13.5" fill="#2D3436" font-weight="600" text-anchor="middle">helpers.php</text>
  <text x="171.25" y="160" font-size="11" fill="#7F8C8D" text-anchor="middle">captcha_* · poster_*</text>
  <rect x="296.5" y="118" width="214.5" height="50" rx="10" fill="#FFFFFF" stroke="#E1E8ED" stroke-width="1"/>
  <rect x="296.5" y="128" width="4" height="30" rx="2" fill="#FF6B6B"/>
  <text x="403.75" y="142" font-size="13.5" fill="#2D3436" font-weight="600" text-anchor="middle">Laravel</text>
  <text x="403.75" y="160" font-size="11" fill="#7F8C8D" text-anchor="middle">Facade · Provider</text>
  <rect x="529" y="118" width="214.5" height="50" rx="10" fill="#FFFFFF" stroke="#E1E8ED" stroke-width="1"/>
  <rect x="529" y="128" width="4" height="30" rx="2" fill="#FF6B6B"/>
  <text x="636.25" y="142" font-size="13.5" fill="#2D3436" font-weight="600" text-anchor="middle">ThinkPHP</text>
  <text x="636.25" y="160" font-size="11" fill="#7F8C8D" text-anchor="middle">CaptchaService</text>
  <rect x="761.5" y="118" width="214.5" height="50" rx="10" fill="#FFFFFF" stroke="#E1E8ED" stroke-width="1"/>
  <rect x="761.5" y="128" width="4" height="30" rx="2" fill="#FF6B6B"/>
  <text x="868.75" y="142" font-size="13.5" fill="#2D3436" font-weight="600" text-anchor="middle">Webman</text>
  <text x="868.75" y="160" font-size="11" fill="#7F8C8D" text-anchor="middle">CaptchaPlugin</text>
  <rect x="180.25" y="180" width="214.5" height="50" rx="10" fill="#FFFFFF" stroke="#E1E8ED" stroke-width="1"/>
  <rect x="180.25" y="190" width="4" height="30" rx="2" fill="#FF6B6B"/>
  <text x="287.5" y="204" font-size="13.5" fill="#2D3436" font-weight="600" text-anchor="middle">Hyperf</text>
  <text x="287.5" y="222" font-size="11" fill="#7F8C8D" text-anchor="middle">ConfigProvider</text>
  <rect x="412.75" y="180" width="214.5" height="50" rx="10" fill="#FFFFFF" stroke="#E1E8ED" stroke-width="1"/>
  <rect x="412.75" y="190" width="4" height="30" rx="2" fill="#FF6B6B"/>
  <text x="520" y="204" font-size="13.5" fill="#2D3436" font-weight="600" text-anchor="middle">Yii2</text>
  <text x="520" y="222" font-size="11" fill="#7F8C8D" text-anchor="middle">PosterComponent</text>
  <rect x="645.25" y="180" width="214.5" height="50" rx="10" fill="#FFFFFF" stroke="#E1E8ED" stroke-width="1"/>
  <rect x="645.25" y="190" width="4" height="30" rx="2" fill="#FF6B6B"/>
  <text x="752.5" y="204" font-size="13.5" fill="#2D3436" font-weight="600" text-anchor="middle">Yii3</text>
  <text x="752.5" y="222" font-size="11" fill="#7F8C8D" text-anchor="middle">config-plugin</text>
  <rect x="40" y="298" width="960" height="140" rx="16" fill="#F2FBF9" stroke="#4ECDC4" stroke-width="1.5"/>
  <rect x="60" y="283" width="115.8" height="30" rx="15" fill="#4ECDC4"/>
  <text x="117.9" y="303" font-size="13" fill="#FFFFFF" font-weight="700" text-anchor="middle">बिज़नेस लेयर</text>
  <rect x="64" y="326" width="447" height="96" rx="10" fill="#FFFFFF" stroke="#E1E8ED" stroke-width="1"/>
  <rect x="64" y="336" width="4" height="76" rx="2" fill="#4ECDC4"/>
  <text x="82" y="348" font-size="14" fill="#2D3436" font-weight="600">कैप्चा मॉड्यूल</text>
  <text x="82" y="366" font-size="12" fill="#7F8C8D" font-family="'SFMono-Regular',Consolas,'Liberation Mono',Menlo,monospace">CaptchaManager → CaptchaFactory</text>
  <rect x="82" y="378" width="51.63" height="30" rx="15" fill="#FFFFFF" stroke="#4ECDC4" stroke-width="1"/>
  <text x="107.81" y="397.14" font-size="11.5" fill="#2D3436" text-anchor="middle">क्लिक</text>
  <rect x="141.63" y="378" width="51.63" height="30" rx="15" fill="#FFFFFF" stroke="#4ECDC4" stroke-width="1"/>
  <text x="167.44" y="397.14" font-size="11.5" fill="#2D3436" text-anchor="middle">रोटेट</text>
  <rect x="201.25" y="378" width="64.28" height="30" rx="15" fill="#FFFFFF" stroke="#4ECDC4" stroke-width="1"/>
  <text x="233.39" y="397.14" font-size="11.5" fill="#2D3436" text-anchor="middle">स्लाइडर</text>
  <rect x="273.53" y="378" width="51.63" height="30" rx="15" fill="#FFFFFF" stroke="#4ECDC4" stroke-width="1"/>
  <text x="299.34" y="397.14" font-size="11.5" fill="#2D3436" text-anchor="middle">रैंडम</text>
  <rect x="529" y="326" width="447" height="96" rx="10" fill="#FFFFFF" stroke="#E1E8ED" stroke-width="1"/>
  <rect x="529" y="336" width="4" height="76" rx="2" fill="#4ECDC4"/>
  <text x="547" y="348" font-size="14" fill="#2D3436" font-weight="600">पोस्टर मॉड्यूल</text>
  <text x="547" y="366" font-size="12" fill="#7F8C8D" font-family="'SFMono-Regular',Consolas,'Liberation Mono',Menlo,monospace">PosterBuilder → 14 elements → PosterTemplate</text>
  <rect x="547" y="378" width="76.93" height="30" rx="15" fill="#FFFFFF" stroke="#4ECDC4" stroke-width="1"/>
  <text x="585.46" y="397.14" font-size="11.5" fill="#2D3436" text-anchor="middle">टेक्स्ट 5</text>
  <rect x="631.93" y="378" width="57.95" height="30" rx="15" fill="#FFFFFF" stroke="#4ECDC4" stroke-width="1"/>
  <text x="660.9" y="397.14" font-size="11.5" fill="#2D3436" text-anchor="middle">इमेज 5</text>
  <rect x="697.88" y="378" width="57.95" height="30" rx="15" fill="#FFFFFF" stroke="#4ECDC4" stroke-width="1"/>
  <text x="726.85" y="397.14" font-size="11.5" fill="#2D3436" text-anchor="middle">डेटा 3</text>
  <rect x="763.83" y="378" width="64.28" height="30" rx="15" fill="#FFFFFF" stroke="#4ECDC4" stroke-width="1"/>
  <text x="795.96" y="397.14" font-size="11.5" fill="#2D3436" text-anchor="middle">ओवरले 1</text>
  <rect x="40" y="466" width="960" height="140" rx="16" fill="#F4FAFD" stroke="#45B7D1" stroke-width="1.5"/>
  <rect x="60" y="451" width="87.2" height="30" rx="15" fill="#45B7D1"/>
  <text x="103.6" y="471" font-size="13" fill="#FFFFFF" font-weight="700" text-anchor="middle">कोर लेयर</text>
  <rect x="64" y="494" width="219" height="96" rx="10" fill="#FFFFFF" stroke="#E1E8ED" stroke-width="1"/>
  <rect x="64" y="504" width="4" height="76" rx="2" fill="#45B7D1"/>
  <text x="82" y="516" font-size="13" fill="#2D3436" font-weight="600">इमेज ड्राइवर</text>
  <text x="82" y="533" font-size="10" fill="#7F8C8D" font-family="'SFMono-Regular',Consolas,'Liberation Mono',Menlo,monospace">ImageDriverInterface</text>
  <text x="82" y="552" font-size="11" fill="#7F8C8D">· GdDriver · ImagickDriver</text>
  <text x="82" y="567" font-size="11" fill="#7F8C8D">· ऑटो-डिटेक्ट, GD पर फ़ॉलबैक</text>
  <text x="82" y="582" font-size="11" fill="#7F8C8D">· अपना ड्राइवर लाएँ</text>
  <rect x="295" y="494" width="219" height="96" rx="10" fill="#FFFFFF" stroke="#E1E8ED" stroke-width="1"/>
  <rect x="295" y="504" width="4" height="76" rx="2" fill="#45B7D1"/>
  <text x="313" y="516" font-size="13" fill="#2D3436" font-weight="600">स्टोरेज</text>
  <text x="313" y="533" font-size="10" fill="#7F8C8D" font-family="'SFMono-Regular',Consolas,'Liberation Mono',Menlo,monospace">StorageInterface</text>
  <text x="313" y="552" font-size="11" fill="#7F8C8D">· FileStorage · Session</text>
  <text x="313" y="567" font-size="11" fill="#7F8C8D">· RedisStorage + PSR-16 कैश</text>
  <text x="313" y="582" font-size="11" fill="#7F8C8D">· ttl व attempts का पालन</text>
  <rect x="526" y="494" width="219" height="96" rx="10" fill="#FFFFFF" stroke="#E1E8ED" stroke-width="1"/>
  <rect x="526" y="504" width="4" height="76" rx="2" fill="#45B7D1"/>
  <text x="544" y="516" font-size="13" fill="#2D3436" font-weight="600">QR कोड</text>
  <text x="544" y="533" font-size="10" fill="#7F8C8D" font-family="'SFMono-Regular',Consolas,'Liberation Mono',Menlo,monospace">QrcodeGenerator</text>
  <text x="544" y="552" font-size="11" fill="#7F8C8D">· शुद्ध PHP, शून्य एक्सटेंशन</text>
  <text x="544" y="567" font-size="11" fill="#7F8C8D">· Model 2 · v1-40</text>
  <text x="544" y="582" font-size="11" fill="#7F8C8D">· केंद्र लोगो · लेबल</text>
  <rect x="757" y="494" width="219" height="96" rx="10" fill="#FFFFFF" stroke="#E1E8ED" stroke-width="1"/>
  <rect x="757" y="504" width="4" height="76" rx="2" fill="#45B7D1"/>
  <text x="775" y="516" font-size="13" fill="#2D3436" font-weight="600">कॉन्फ़िग</text>
  <text x="775" y="533" font-size="10" fill="#7F8C8D" font-family="'SFMono-Regular',Consolas,'Liberation Mono',Menlo,monospace">load / get / merge / reset</text>
  <text x="775" y="552" font-size="11" fill="#7F8C8D">· captcha.* · image.*</text>
  <text x="775" y="567" font-size="11" fill="#7F8C8D">· फ़्रेमवर्क कॉन्फ़िग पढ़ता है</text>
  <text x="775" y="582" font-size="11" fill="#7F8C8D">· सुरक्षित डिफ़ॉल्ट</text>
  <rect x="40" y="634" width="960" height="80" rx="16" fill="#F5FBF7" stroke="#96CEB4" stroke-width="1.5"/>
  <rect x="60" y="619" width="94.35" height="30" rx="15" fill="#96CEB4"/>
  <text x="107.18" y="639" font-size="13" fill="#FFFFFF" font-weight="700" text-anchor="middle">फ़ाउंडेशन</text>
  <rect x="64" y="660" width="95.5" height="34" rx="17" fill="#FFFFFF" stroke="#96CEB4" stroke-width="1"/>
  <text x="111.75" y="681.5" font-size="12.5" fill="#2D3436" font-weight="600" text-anchor="middle">PHP ≥ 8.0</text>
  <rect x="171.5" y="660" width="69.25" height="34" rx="17" fill="#FFFFFF" stroke="#96CEB4" stroke-width="1"/>
  <text x="206.13" y="681.5" font-size="12.5" fill="#2D3436" font-weight="600" text-anchor="middle">ext-gd</text>
  <rect x="252.75" y="660" width="110.5" height="34" rx="17" fill="#FFFFFF" stroke="#96CEB4" stroke-width="1"/>
  <text x="308" y="681.5" font-size="12.5" fill="#2D3436" font-weight="600" text-anchor="middle">ext-mbstring</text>
  <text x="383.25" y="682" font-size="11" fill="#7F8C8D">आवश्यक</text>
  <rect x="459.25" y="660" width="165.5" height="34" rx="17" fill="#FFFFFF" stroke="#E1E8ED" stroke-width="1"/>
  <text x="542" y="681.5" font-size="12.5" fill="#7F8C8D" text-anchor="middle">ext-imagick वैकल्पिक</text>
  <rect x="636.75" y="660" width="151.75" height="34" rx="17" fill="#FFFFFF" stroke="#E1E8ED" stroke-width="1"/>
  <text x="712.63" y="681.5" font-size="12.5" fill="#7F8C8D" text-anchor="middle">ext-redis वैकल्पिक</text>
  <line x1="520" y1="246" x2="520" y2="294" stroke="#E1E8ED" stroke-width="2" marker-end="url(#arrow)"/>
  <text x="532" y="275" font-size="11.5" fill="#7F8C8D">कॉल</text>
  <line x1="520" y1="442" x2="520" y2="462" stroke="#E1E8ED" stroke-width="2" marker-end="url(#arrow)"/>
  <text x="532" y="457" font-size="11.5" fill="#7F8C8D">ड्रॉ</text>
  <line x1="520" y1="610" x2="520" y2="630" stroke="#E1E8ED" stroke-width="2" marker-end="url(#arrow)"/>
  <text x="532" y="625" font-size="11.5" fill="#7F8C8D">आवश्यक</text>
  <text x="520" y="746" font-size="11.5" fill="#7F8C8D" text-anchor="middle">इमेज ड्राइवर या स्टोरेज बैकएंड बदलें — बिज़नेस और API कोड अछूते रहते हैं</text>
</svg>
