<?xml version="1.0" encoding="UTF-8"?>
<svg xmlns="http://www.w3.org/2000/svg" viewBox="0 0 1040 748" width="1040" height="748" font-family="-apple-system,BlinkMacSystemFont,'Segoe UI','PingFang SC','Hiragino Sans GB','Microsoft YaHei','Noto Sans CJK SC',sans-serif" role="img" aria-label="poster-php Funktionsdesign">
  <title>poster-php Funktionsdesign</title>
  <defs><marker id="arrow" viewBox="0 0 10 10" refX="9" refY="5" markerWidth="6" markerHeight="6" orient="auto"><path d="M0 0L10 5L0 10Z" fill="#B2BEC3"/></marker></defs>
  <rect width="1040" height="748" fill="#FFFFFF"/>
  <text x="520" y="42" font-size="23" fill="#2D3436" font-weight="700" text-anchor="middle">poster-php Funktionsdesign</text>
  <text x="520" y="66" font-size="13" fill="#7F8C8D" text-anchor="middle">Zwei Module: Captcha-Prüfung und Bildkomposition — je mit Helfern, voller API und Framework-Adaptern</text>
  <rect x="40" y="88" width="470" height="54" rx="14" fill="#FFF6F6" stroke="#FF6B6B" stroke-width="1.5"/>
  <circle cx="78" cy="115" r="14" fill="#FF6B6B"/>
  <text x="78" y="120" font-size="13" fill="#FFFFFF" font-weight="700" text-anchor="middle">C</text>
  <text x="102" y="112" font-size="15.5" fill="#2D3436" font-weight="700">Captcha</text>
  <text x="102" y="130" font-size="11.5" fill="#7F8C8D">3 Interaktionstypen + Zufall</text>
  <rect x="530" y="88" width="470" height="54" rx="14" fill="#F2FBF9" stroke="#4ECDC4" stroke-width="1.5"/>
  <circle cx="568" cy="115" r="14" fill="#4ECDC4"/>
  <text x="568" y="120" font-size="13" fill="#FFFFFF" font-weight="700" text-anchor="middle">P</text>
  <text x="592" y="112" font-size="15.5" fill="#2D3436" font-weight="700">Poster</text>
  <text x="592" y="130" font-size="11.5" fill="#7F8C8D">Fluent Builder · 14 Elemente</text>
  <rect x="40" y="154" width="470" height="64" rx="12" fill="#FFFFFF" stroke="#E1E8ED" stroke-width="1"/>
  <rect x="40" y="164" width="4" height="44" rx="2" fill="#FF6B6B"/>
  <circle cx="74" cy="186" r="14" fill="#FFF0F0" stroke="#FF6B6B" stroke-width="1.5"/>
  <text x="74" y="191" font-size="13" fill="#FF6B6B" font-weight="700" text-anchor="middle">1</text>
  <text x="100" y="182" font-size="14" fill="#2D3436" font-weight="600">Klick</text>
  <text x="146.81" y="182" font-size="11" fill="#FF6B6B" font-family="'SFMono-Regular',Consolas,'Liberation Mono',Menlo,monospace">click</text>
  <text x="100" y="202" font-size="11.5" fill="#7F8C8D">Zielbuchstaben der Reihe nach anklicken</text>
  <text x="490" y="186" font-size="11" fill="#7F8C8D" text-anchor="end">2-4 Ziele · ±18px</text>
  <rect x="40" y="230" width="470" height="64" rx="12" fill="#FFFFFF" stroke="#E1E8ED" stroke-width="1"/>
  <rect x="40" y="240" width="4" height="44" rx="2" fill="#FF6B6B"/>
  <circle cx="74" cy="262" r="14" fill="#FFF0F0" stroke="#FF6B6B" stroke-width="1.5"/>
  <text x="74" y="267" font-size="13" fill="#FF6B6B" font-weight="700" text-anchor="middle">2</text>
  <text x="100" y="258" font-size="14" fill="#2D3436" font-weight="600">Drehen</text>
  <text x="154.97" y="258" font-size="11" fill="#FF6B6B" font-family="'SFMono-Regular',Consolas,'Liberation Mono',Menlo,monospace">rotate</text>
  <text x="100" y="278" font-size="11.5" fill="#7F8C8D">Slider ziehen bis das Bild gerade ist</text>
  <text x="490" y="262" font-size="11" fill="#7F8C8D" text-anchor="end">30°-330° · ±5°</text>
  <rect x="40" y="306" width="470" height="64" rx="12" fill="#FFFFFF" stroke="#E1E8ED" stroke-width="1"/>
  <rect x="40" y="316" width="4" height="44" rx="2" fill="#FF6B6B"/>
  <circle cx="74" cy="338" r="14" fill="#FFF0F0" stroke="#FF6B6B" stroke-width="1.5"/>
  <text x="74" y="343" font-size="13" fill="#FF6B6B" font-weight="700" text-anchor="middle">3</text>
  <text x="100" y="334" font-size="14" fill="#2D3436" font-weight="600">Slider</text>
  <text x="154.97" y="334" font-size="11" fill="#FF6B6B" font-family="'SFMono-Regular',Consolas,'Liberation Mono',Menlo,monospace">slider</text>
  <text x="100" y="354" font-size="11.5" fill="#7F8C8D">Puzzleteil in die Lücke ziehen</text>
  <text x="490" y="338" font-size="11" fill="#7F8C8D" text-anchor="end">±4px · eigene Größe</text>
  <rect x="40" y="382" width="470" height="64" rx="12" fill="#FFFFFF" stroke="#E1E8ED" stroke-width="1"/>
  <rect x="40" y="392" width="4" height="44" rx="2" fill="#FF6B6B"/>
  <circle cx="74" cy="414" r="14" fill="#FFF0F0" stroke="#FF6B6B" stroke-width="1.5"/>
  <text x="74" y="419" font-size="13" fill="#FF6B6B" font-weight="700" text-anchor="middle">4</text>
  <text x="100" y="410" font-size="14" fill="#2D3436" font-weight="600">Zufall</text>
  <text x="154.97" y="410" font-size="11" fill="#FF6B6B" font-family="'SFMono-Regular',Consolas,'Liberation Mono',Menlo,monospace">random</text>
  <text x="100" y="430" font-size="11.5" fill="#7F8C8D">Wählt zufällig eine der drei Arten</text>
  <text x="490" y="414" font-size="11" fill="#7F8C8D" text-anchor="end">schwerer zu umgehen</text>
  <rect x="40" y="458" width="470" height="122" rx="12" fill="#FFF6F6" stroke="#FF6B6B" stroke-width="1.5"/>
  <text x="60" y="486" font-size="14" fill="#2D3436" font-weight="700">Sicherheit</text>
  <rect x="60" y="500" width="121.2" height="28" rx="14" fill="#FFFFFF" stroke="#FF6B6B" stroke-width="1"/>
  <text x="120.6" y="518.14" font-size="11.5" fill="#2D3436" text-anchor="middle">Einmal-Schlüssel</text>
  <rect x="189.2" y="500" width="114.88" height="28" rx="14" fill="#FFFFFF" stroke="#FF6B6B" stroke-width="1"/>
  <text x="246.64" y="518.14" font-size="11.5" fill="#2D3436" text-anchor="middle">Max. 3 Versuche</text>
  <rect x="312.08" y="500" width="108.55" height="28" rx="14" fill="#FFFFFF" stroke="#FF6B6B" stroke-width="1"/>
  <text x="366.35" y="518.14" font-size="11.5" fill="#2D3436" text-anchor="middle">Sitzungs-Limit</text>
  <rect x="60" y="538" width="108.55" height="28" rx="14" fill="#FFFFFF" stroke="#FF6B6B" stroke-width="1"/>
  <text x="114.28" y="556.14" font-size="11.5" fill="#2D3436" text-anchor="middle">3 Hintergründe</text>
  <rect x="176.55" y="538" width="159.15" height="28" rx="14" fill="#FFFFFF" stroke="#FF6B6B" stroke-width="1"/>
  <text x="256.13" y="556.14" font-size="11.5" fill="#2D3436" text-anchor="middle">Trajektorie (optional)</text>
  <rect x="343.7" y="538" width="133.85" height="28" rx="14" fill="#FFFFFF" stroke="#FF6B6B" stroke-width="1"/>
  <text x="410.63" y="556.14" font-size="11.5" fill="#2D3436" text-anchor="middle">File/Session/Redis</text>
  <rect x="530" y="154" width="470" height="64" rx="12" fill="#FFFFFF" stroke="#E1E8ED" stroke-width="1"/>
  <rect x="530" y="164" width="4" height="44" rx="2" fill="#4ECDC4"/>
  <text x="550" y="182" font-size="14" fill="#2D3436" font-weight="600">Text &amp; Layout</text>
  <text x="668.11" y="182" font-size="11" fill="#4ECDC4" font-weight="700">5 Typen</text>
  <rect x="550" y="188" width="42.2" height="24" rx="12" fill="#FFFFFF" stroke="#4ECDC4" stroke-width="1"/>
  <text x="571.1" y="203.96" font-size="11" fill="#2D3436" text-anchor="middle">Text</text>
  <rect x="598.2" y="188" width="90.6" height="24" rx="12" fill="#FFFFFF" stroke="#4ECDC4" stroke-width="1"/>
  <text x="643.5" y="203.96" font-size="11" fill="#2D3436" text-anchor="middle">Kunstschrift</text>
  <rect x="694.8" y="188" width="48.25" height="24" rx="12" fill="#FFFFFF" stroke="#4ECDC4" stroke-width="1"/>
  <text x="718.93" y="203.96" font-size="11" fill="#2D3436" text-anchor="middle">Emoji</text>
  <rect x="749.05" y="188" width="42.2" height="24" rx="12" fill="#FFFFFF" stroke="#4ECDC4" stroke-width="1"/>
  <text x="770.15" y="203.96" font-size="11" fill="#2D3436" text-anchor="middle">Icon</text>
  <rect x="797.25" y="188" width="60.35" height="24" rx="12" fill="#FFFFFF" stroke="#4ECDC4" stroke-width="1"/>
  <text x="827.43" y="203.96" font-size="11" fill="#2D3436" text-anchor="middle">Kaomoji</text>
  <rect x="530" y="230" width="470" height="64" rx="12" fill="#FFFFFF" stroke="#E1E8ED" stroke-width="1"/>
  <rect x="530" y="240" width="4" height="44" rx="2" fill="#45B7D1"/>
  <text x="550" y="258" font-size="14" fill="#2D3436" font-weight="600">Bild &amp; Form</text>
  <text x="651.78" y="258" font-size="11" fill="#45B7D1" font-weight="700">5 Typen</text>
  <rect x="550" y="264" width="42.2" height="24" rx="12" fill="#FFFFFF" stroke="#45B7D1" stroke-width="1"/>
  <text x="571.1" y="279.96" font-size="11" fill="#2D3436" text-anchor="middle">Bild</text>
  <rect x="598.2" y="264" width="54.3" height="24" rx="12" fill="#FFFFFF" stroke="#45B7D1" stroke-width="1"/>
  <text x="625.35" y="279.96" font-size="11" fill="#2D3436" text-anchor="middle">Avatar</text>
  <rect x="658.5" y="264" width="60.35" height="24" rx="12" fill="#FFFFFF" stroke="#45B7D1" stroke-width="1"/>
  <text x="688.68" y="279.96" font-size="11" fill="#2D3436" text-anchor="middle">QR-Code</text>
  <rect x="724.85" y="264" width="42.2" height="24" rx="12" fill="#FFFFFF" stroke="#45B7D1" stroke-width="1"/>
  <text x="745.95" y="279.96" font-size="11" fill="#2D3436" text-anchor="middle">Form</text>
  <rect x="773.05" y="264" width="60.35" height="24" rx="12" fill="#FFFFFF" stroke="#45B7D1" stroke-width="1"/>
  <text x="803.23" y="279.96" font-size="11" fill="#2D3436" text-anchor="middle">Trenner</text>
  <rect x="530" y="306" width="470" height="64" rx="12" fill="#FFFFFF" stroke="#E1E8ED" stroke-width="1"/>
  <rect x="530" y="316" width="4" height="44" rx="2" fill="#FF8E53"/>
  <text x="550" y="334" font-size="14" fill="#2D3436" font-weight="600">Datenanzeige</text>
  <text x="659.94" y="334" font-size="11" fill="#FF8E53" font-weight="700">3 Typen</text>
  <rect x="550" y="340" width="60.35" height="24" rx="12" fill="#FFFFFF" stroke="#FF8E53" stroke-width="1"/>
  <text x="580.18" y="355.96" font-size="11" fill="#2D3436" text-anchor="middle">Tabelle</text>
  <rect x="616.35" y="340" width="181.35" height="24" rx="12" fill="#FFFFFF" stroke="#FF8E53" stroke-width="1"/>
  <text x="707.03" y="355.96" font-size="11" fill="#2D3436" text-anchor="middle">Diagramm Balken/Linie/Kreis</text>
  <rect x="803.7" y="340" width="66.4" height="24" rx="12" fill="#FFFFFF" stroke="#FF8E53" stroke-width="1"/>
  <text x="836.9" y="355.96" font-size="11" fill="#2D3436" text-anchor="middle">Kalender</text>
  <rect x="530" y="382" width="470" height="64" rx="12" fill="#FFFFFF" stroke="#E1E8ED" stroke-width="1"/>
  <rect x="530" y="392" width="4" height="44" rx="2" fill="#96CEB4"/>
  <text x="550" y="410" font-size="14" fill="#2D3436" font-weight="600">Overlay</text>
  <text x="619.13" y="410" font-size="11" fill="#96CEB4" font-weight="700">1 Typen</text>
  <rect x="550" y="416" width="272.1" height="24" rx="12" fill="#FFFFFF" stroke="#96CEB4" stroke-width="1"/>
  <text x="686.05" y="431.96" font-size="11" fill="#2D3436" text-anchor="middle">Wasserzeichen gekachelt / Winkel / Abstand</text>
  <rect x="530" y="458" width="470" height="122" rx="12" fill="#F2FBF9" stroke="#4ECDC4" stroke-width="1.5"/>
  <text x="550" y="486" font-size="14" fill="#2D3436" font-weight="700">Template-System</text>
  <rect x="550" y="500" width="114.88" height="28" rx="14" fill="#FFFFFF" stroke="#4ECDC4" stroke-width="1"/>
  <text x="607.44" y="518.14" font-size="11.5" fill="#2D3436" text-anchor="middle">JSON-Definition</text>
  <rect x="672.88" y="500" width="152.83" height="28" rx="14" fill="#FFFFFF" stroke="#4ECDC4" stroke-width="1"/>
  <text x="749.29" y="518.14" font-size="11.5" fill="#2D3436" text-anchor="middle">{{variable}} ersetzen</text>
  <rect x="833.7" y="500" width="127.53" height="28" rx="14" fill="#FFFFFF" stroke="#4ECDC4" stroke-width="1"/>
  <text x="897.46" y="518.14" font-size="11.5" fill="#2D3436" text-anchor="middle">einmal definieren</text>
  <rect x="550" y="538" width="64.28" height="28" rx="14" fill="#FFFFFF" stroke="#4ECDC4" stroke-width="1"/>
  <text x="582.14" y="556.14" font-size="11.5" fill="#2D3436" text-anchor="middle">Laravel</text>
  <rect x="622.28" y="538" width="70.6" height="28" rx="14" fill="#FFFFFF" stroke="#4ECDC4" stroke-width="1"/>
  <text x="657.58" y="556.14" font-size="11.5" fill="#2D3436" text-anchor="middle">ThinkPHP</text>
  <rect x="700.88" y="538" width="57.95" height="28" rx="14" fill="#FFFFFF" stroke="#4ECDC4" stroke-width="1"/>
  <text x="729.85" y="556.14" font-size="11.5" fill="#2D3436" text-anchor="middle">Webman</text>
  <rect x="766.83" y="538" width="57.95" height="28" rx="14" fill="#FFFFFF" stroke="#4ECDC4" stroke-width="1"/>
  <text x="795.8" y="556.14" font-size="11.5" fill="#2D3436" text-anchor="middle">Hyperf</text>
  <rect x="40" y="594" width="960" height="68" rx="12" fill="#F8FAFC" stroke="#D8E0E6" stroke-width="1.5"/>
  <text x="60" y="622" font-size="13.5" fill="#2D3436" font-weight="700">Einstieg</text>
  <text x="144" y="622" font-size="11.5" fill="#7F8C8D">helpers.php globale Funktionen, sofort nutzbar</text>
  <rect x="60" y="629" width="121.2" height="26" rx="13" fill="#FFFFFF" stroke="#E1E8ED" stroke-width="1"/>
  <text x="120.6" y="646.14" font-size="11.5" fill="#2D3436" text-anchor="middle">captcha_create()</text>
  <rect x="189.2" y="629" width="121.2" height="26" rx="13" fill="#FFFFFF" stroke="#E1E8ED" stroke-width="1"/>
  <text x="249.8" y="646.14" font-size="11.5" fill="#2D3436" text-anchor="middle">captcha_verify()</text>
  <rect x="318.4" y="629" width="114.88" height="26" rx="13" fill="#FFFFFF" stroke="#E1E8ED" stroke-width="1"/>
  <text x="375.84" y="646.14" font-size="11.5" fill="#2D3436" text-anchor="middle">poster_create()</text>
  <text x="470" y="644" font-size="11.5" fill="#7F8C8D">addXxx() beliebig verkettbar; Elemente in Aufrufreihenfolge gezeichnet</text>
</svg>
